<mxfile host="app.diagrams.net" modified="2024-03-06T05:56:42.592Z" agent="Mozilla/5.0 (Windows NT 10.0; Win64; x64) AppleWebKit/537.36 (KHTML, like Gecko) Chrome/122.0.0.0 Safari/537.36" etag="rtB5nRExzsfuEKzwMnyw" version="24.0.2" type="github">
  <diagram name="Page-1" id="zTVVRtBnwZiGWWIX4P42">
    <mxGraphModel dx="4400" dy="3509" grid="1" gridSize="10" guides="1" tooltips="1" connect="1" arrows="1" fold="1" page="1" pageScale="1" pageWidth="827" pageHeight="1169" math="0" shadow="0">
      <root>
        <mxCell id="0" />
        <mxCell id="1" parent="0" />
        <mxCell id="GzIp523Y100113GaBNRl-26" value="" style="edgeStyle=orthogonalEdgeStyle;rounded=0;orthogonalLoop=1;jettySize=auto;html=1;strokeWidth=5;" edge="1" parent="1" source="GzIp523Y100113GaBNRl-1" target="GzIp523Y100113GaBNRl-2">
          <mxGeometry relative="1" as="geometry">
            <Array as="points">
              <mxPoint x="800" y="-540" />
              <mxPoint x="800" y="-540" />
            </Array>
          </mxGeometry>
        </mxCell>
        <mxCell id="GzIp523Y100113GaBNRl-1" value="&lt;font size=&quot;1&quot; style=&quot;&quot; face=&quot;Times New Roman&quot;&gt;&lt;b style=&quot;font-size: 30px;&quot;&gt;IR SENSORS&lt;/b&gt;&lt;/font&gt;" style="rounded=0;whiteSpace=wrap;html=1;strokeWidth=5;" vertex="1" parent="1">
          <mxGeometry x="660" y="-700" width="265" height="146" as="geometry" />
        </mxCell>
        <mxCell id="GzIp523Y100113GaBNRl-27" value="" style="edgeStyle=orthogonalEdgeStyle;rounded=0;orthogonalLoop=1;jettySize=auto;html=1;strokeWidth=5;" edge="1" parent="1" source="GzIp523Y100113GaBNRl-2" target="GzIp523Y100113GaBNRl-1">
          <mxGeometry relative="1" as="geometry">
            <Array as="points">
              <mxPoint x="830" y="-510" />
              <mxPoint x="830" y="-510" />
            </Array>
          </mxGeometry>
        </mxCell>
        <mxCell id="GzIp523Y100113GaBNRl-33" value="" style="edgeStyle=orthogonalEdgeStyle;rounded=0;orthogonalLoop=1;jettySize=auto;html=1;strokeWidth=5;" edge="1" parent="1" source="GzIp523Y100113GaBNRl-2" target="GzIp523Y100113GaBNRl-5">
          <mxGeometry relative="1" as="geometry">
            <Array as="points">
              <mxPoint x="800" y="10" />
              <mxPoint x="800" y="10" />
            </Array>
          </mxGeometry>
        </mxCell>
        <mxCell id="GzIp523Y100113GaBNRl-38" value="" style="edgeStyle=orthogonalEdgeStyle;rounded=0;orthogonalLoop=1;jettySize=auto;html=1;entryX=0;entryY=0.125;entryDx=0;entryDy=0;entryPerimeter=0;strokeWidth=5;" edge="1" parent="1" target="GzIp523Y100113GaBNRl-8">
          <mxGeometry relative="1" as="geometry">
            <mxPoint x="930" y="-60" as="sourcePoint" />
            <mxPoint x="1256.3999999999999" y="-57.680000000000064" as="targetPoint" />
            <Array as="points">
              <mxPoint x="1240" y="-60" />
              <mxPoint x="1240" y="-60" />
            </Array>
          </mxGeometry>
        </mxCell>
        <mxCell id="GzIp523Y100113GaBNRl-45" value="" style="edgeStyle=orthogonalEdgeStyle;rounded=0;orthogonalLoop=1;jettySize=auto;html=1;strokeWidth=5;" edge="1" parent="1" source="GzIp523Y100113GaBNRl-2" target="GzIp523Y100113GaBNRl-6">
          <mxGeometry relative="1" as="geometry">
            <Array as="points">
              <mxPoint x="590" y="-320" />
              <mxPoint x="590" y="-320" />
            </Array>
          </mxGeometry>
        </mxCell>
        <mxCell id="GzIp523Y100113GaBNRl-2" value="&lt;font size=&quot;1&quot; style=&quot;&quot; face=&quot;Times New Roman&quot;&gt;&lt;b style=&quot;font-size: 37px;&quot;&gt;ARDUINO&lt;/b&gt;&lt;/font&gt;" style="rounded=0;whiteSpace=wrap;html=1;strokeWidth=5;" vertex="1" parent="1">
          <mxGeometry x="612.5" y="-470" width="375" height="440" as="geometry" />
        </mxCell>
        <mxCell id="GzIp523Y100113GaBNRl-3" value="&lt;font size=&quot;1&quot; face=&quot;Times New Roman&quot; style=&quot;&quot;&gt;&lt;b style=&quot;font-size: 30px;&quot;&gt;SERVO1&lt;/b&gt;&lt;/font&gt;" style="rounded=0;whiteSpace=wrap;html=1;strokeWidth=5;" vertex="1" parent="1">
          <mxGeometry x="1080" y="-260" width="150" height="80" as="geometry" />
        </mxCell>
        <mxCell id="GzIp523Y100113GaBNRl-4" value="&lt;font size=&quot;1&quot; face=&quot;Times New Roman&quot; style=&quot;&quot;&gt;&lt;b style=&quot;font-size: 30px;&quot;&gt;MIT APP&lt;/b&gt;&lt;/font&gt;" style="rounded=0;whiteSpace=wrap;html=1;strokeWidth=5;" vertex="1" parent="1">
          <mxGeometry x="320" y="20" width="200" height="130" as="geometry" />
        </mxCell>
        <mxCell id="GzIp523Y100113GaBNRl-5" value="&lt;font size=&quot;1&quot; face=&quot;Times New Roman&quot; style=&quot;&quot;&gt;&lt;b style=&quot;font-size: 30px;&quot;&gt;BLUETOOTH MODULE&lt;/b&gt;&lt;/font&gt;" style="rounded=0;whiteSpace=wrap;html=1;strokeWidth=5;" vertex="1" parent="1">
          <mxGeometry x="670" y="30" width="280" height="140" as="geometry" />
        </mxCell>
        <mxCell id="GzIp523Y100113GaBNRl-6" value="&lt;font size=&quot;1&quot; style=&quot;&quot; face=&quot;Times New Roman&quot;&gt;&lt;b style=&quot;font-size: 29px;&quot;&gt;SERVO2&lt;/b&gt;&lt;/font&gt;" style="rounded=0;whiteSpace=wrap;html=1;strokeWidth=5;" vertex="1" parent="1">
          <mxGeometry x="300" y="-410" width="200" height="180" as="geometry" />
        </mxCell>
        <mxCell id="GzIp523Y100113GaBNRl-7" value="&lt;font size=&quot;1&quot; face=&quot;Times New Roman&quot; style=&quot;&quot;&gt;&lt;b style=&quot;font-size: 30px;&quot;&gt;LCD DISPLAY&lt;/b&gt;&lt;/font&gt;" style="rounded=0;whiteSpace=wrap;html=1;strokeWidth=5;" vertex="1" parent="1">
          <mxGeometry x="1270" y="-260" width="210" height="80" as="geometry" />
        </mxCell>
        <mxCell id="GzIp523Y100113GaBNRl-32" value="" style="edgeStyle=orthogonalEdgeStyle;rounded=0;orthogonalLoop=1;jettySize=auto;html=1;strokeWidth=5;" edge="1" parent="1" source="GzIp523Y100113GaBNRl-8" target="GzIp523Y100113GaBNRl-7">
          <mxGeometry relative="1" as="geometry">
            <Array as="points">
              <mxPoint x="1375" y="-110" />
              <mxPoint x="1375" y="-110" />
            </Array>
          </mxGeometry>
        </mxCell>
        <mxCell id="GzIp523Y100113GaBNRl-8" value="&lt;font size=&quot;1&quot; style=&quot;&quot;&gt;&lt;b style=&quot;font-size: 30px;&quot;&gt;I2C&lt;/b&gt;&lt;/font&gt;" style="rounded=0;whiteSpace=wrap;html=1;strokeWidth=5;" vertex="1" parent="1">
          <mxGeometry x="1290" y="-70" width="200" height="80" as="geometry" />
        </mxCell>
        <mxCell id="GzIp523Y100113GaBNRl-31" value="" style="edgeStyle=orthogonalEdgeStyle;rounded=0;orthogonalLoop=1;jettySize=auto;html=1;entryX=0.415;entryY=-0.099;entryDx=0;entryDy=0;entryPerimeter=0;strokeWidth=5;" edge="1" parent="1" source="GzIp523Y100113GaBNRl-9" target="GzIp523Y100113GaBNRl-3">
          <mxGeometry relative="1" as="geometry">
            <mxPoint x="1125" y="-390" as="targetPoint" />
          </mxGeometry>
        </mxCell>
        <mxCell id="GzIp523Y100113GaBNRl-9" value="&lt;font size=&quot;1&quot; face=&quot;Times New Roman&quot; style=&quot;&quot;&gt;&lt;b style=&quot;font-size: 30px;&quot;&gt;ESP32 CAM&lt;/b&gt;&lt;/font&gt;" style="rounded=0;whiteSpace=wrap;html=1;strokeWidth=5;" vertex="1" parent="1">
          <mxGeometry x="1280" y="-480" width="210" height="100" as="geometry" />
        </mxCell>
        <mxCell id="GzIp523Y100113GaBNRl-10" value="" style="rounded=0;whiteSpace=wrap;html=1;" vertex="1" parent="1">
          <mxGeometry x="480" y="380" height="60" as="geometry" />
        </mxCell>
        <mxCell id="GzIp523Y100113GaBNRl-34" value="" style="html=1;verticalLabelPosition=bottom;align=center;labelBackgroundColor=#ffffff;verticalAlign=top;strokeWidth=5;strokeColor=#000000;shadow=0;dashed=0;shape=mxgraph.ios7.icons.bluetooth;pointerEvents=1" vertex="1" parent="1">
          <mxGeometry x="550" y="60" width="55" height="80" as="geometry" />
        </mxCell>
        <mxCell id="GzIp523Y100113GaBNRl-41" value="" style="edgeStyle=orthogonalEdgeStyle;rounded=0;orthogonalLoop=1;jettySize=auto;html=1;strokeWidth=5;" edge="1" parent="1">
          <mxGeometry relative="1" as="geometry">
            <mxPoint x="1057.5000000000005" y="-560.0000000000002" as="sourcePoint" />
            <mxPoint x="987.5" y="-330" as="targetPoint" />
            <Array as="points">
              <mxPoint x="1057.5" y="-480" />
              <mxPoint x="1057.5" y="-480" />
            </Array>
          </mxGeometry>
        </mxCell>
        <mxCell id="GzIp523Y100113GaBNRl-43" value="" style="edgeStyle=orthogonalEdgeStyle;rounded=0;orthogonalLoop=1;jettySize=auto;html=1;strokeWidth=5;" edge="1" parent="1" source="GzIp523Y100113GaBNRl-39">
          <mxGeometry relative="1" as="geometry">
            <mxPoint x="1430" y="-480" as="targetPoint" />
            <Array as="points">
              <mxPoint x="1430" y="-600" />
            </Array>
          </mxGeometry>
        </mxCell>
        <mxCell id="GzIp523Y100113GaBNRl-39" value="&lt;font face=&quot;Times New Roman&quot; size=&quot;1&quot; style=&quot;&quot;&gt;&lt;b style=&quot;font-size: 30px;&quot;&gt;POWER SUPPLY&lt;/b&gt;&lt;/font&gt;" style="rounded=0;whiteSpace=wrap;html=1;strokeWidth=5;" vertex="1" parent="1">
          <mxGeometry x="1020" y="-690" width="320" height="150" as="geometry" />
        </mxCell>
      </root>
    </mxGraphModel>
  </diagram>
</mxfile>
